# Blender v2.92.0 OBJ File: ''
# www.blender.org
o Cube
v 1.000000 0.100000 -1.000000
v 1.000000 -0.100000 -1.000000
v 1.000000 0.100000 1.000000
v 1.000000 -0.100000 1.000000
v -1.000000 0.100000 -1.000000
v -1.000000 -0.100000 -1.000000
v -1.000000 0.100000 1.000000
v -1.000000 -0.100000 1.000000
vt 1.993518 -0.011719
vt 0.997839 0.994948
vt 0.997839 -0.011719
vt 0.002161 2.001614
vt 0.002161 0.994948
vt 0.997839 -2.025052
vt 0.002161 -1.018385
vt 0.002161 -2.025052
vt 0.002161 -0.011719
vt -0.993518 0.994948
vt -0.993518 -0.011719
vt 0.997839 -1.018385
vt 1.993518 0.994948
vt 0.997839 2.001614
vn 0.0000 1.0000 0.0000
vn 0.0000 0.0000 1.0000
vn -1.0000 0.0000 0.0000
vn 0.0000 -1.0000 0.0000
vn 1.0000 0.0000 0.0000
vn 0.0000 0.0000 -1.0000
s off
f 5/1/1 3/2/1 1/3/1
f 3/2/2 8/4/2 4/5/2
f 7/6/3 6/7/3 8/8/3
f 2/9/4 8/10/4 6/11/4
f 1/3/5 4/5/5 2/9/5
f 5/12/6 2/9/6 6/7/6
f 5/1/1 7/13/1 3/2/1
f 3/2/2 7/14/2 8/4/2
f 7/6/3 5/12/3 6/7/3
f 2/9/4 4/5/4 8/10/4
f 1/3/5 3/2/5 4/5/5
f 5/12/6 1/3/6 2/9/6
